<?xml version="1.0" encoding="UTF-8" ?>
<!DOCTYPE svg PUBLIC "-//W3C//DTD SVG 1.1//EN" "http://www.w3.org/Graphics/SVG/1.1/DTD/svg11.dtd">
<svg width="1161pt" height="1161pt" viewBox="0 0 1161 1161" version="1.1" xmlns="http://www.w3.org/2000/svg">
<g id="#3d4750ff">
<path fill="#3d4750" opacity="1.00" d=" M 497.29 322.50 C 527.19 321.91 557.11 322.42 587.01 322.09 C 592.87 322.36 599.15 321.63 604.57 324.31 C 608.41 327.60 611.04 332.04 613.68 336.30 C 647.53 395.76 682.69 454.45 717.83 513.15 C 725.58 526.48 732.55 540.36 741.90 552.70 C 752.70 537.48 761.85 521.20 771.08 505.01 C 779.53 489.95 788.73 475.32 797.27 460.32 C 818.94 423.28 841.04 386.50 862.17 349.16 C 866.54 341.30 870.39 333.07 875.88 325.89 C 877.70 323.39 880.93 322.56 883.88 322.47 C 899.27 321.79 914.67 322.32 930.07 322.33 C 948.56 322.46 967.06 322.63 985.55 322.71 C 986.46 446.80 985.60 570.89 985.45 694.97 C 985.50 716.65 985.36 738.32 985.18 759.99 C 985.01 794.82 985.18 829.65 984.41 864.48 C 957.81 864.07 931.20 865.19 904.60 864.58 C 905.36 749.72 904.59 634.86 904.22 520.00 C 904.13 494.68 904.11 469.35 903.08 444.05 C 871.22 499.59 838.22 554.48 805.80 609.69 C 785.56 644.66 765.31 679.65 743.86 713.90 C 734.45 700.74 726.55 686.61 718.20 672.78 C 690.38 626.29 662.14 580.05 634.54 533.41 C 626.22 519.57 616.58 506.59 608.25 492.75 C 599.55 478.91 591.80 464.19 580.23 452.44 C 577.36 497.97 579.68 543.67 576.33 589.18 C 549.86 589.73 523.38 590.26 496.90 590.13 C 496.34 531.11 496.64 472.09 496.65 413.07 C 496.97 382.88 495.77 352.66 497.29 322.50 Z" />
<path fill="#3d4750" opacity="1.00" d=" M 182.41 348.41 C 204.46 334.38 229.48 323.04 256.06 322.82 C 318.34 322.82 380.62 322.14 442.89 322.75 C 444.37 350.09 443.62 377.47 443.38 404.83 C 387.62 405.91 331.85 404.88 276.09 405.32 C 259.29 405.57 242.03 409.31 228.00 418.91 C 214.56 428.23 204.93 442.42 199.99 457.93 C 196.17 469.55 194.62 481.84 194.72 494.06 C 195.37 564.37 194.91 634.69 195.01 705.01 C 195.17 717.82 196.58 731.03 202.50 742.59 C 209.00 755.18 220.39 764.29 232.01 771.93 C 237.44 775.69 243.68 778.18 250.16 779.43 C 258.67 781.17 267.39 780.51 276.01 780.60 C 359.37 780.47 442.72 781.23 526.08 780.85 C 543.05 780.75 560.03 780.73 576.98 781.45 C 576.70 808.85 577.65 836.30 575.99 863.67 C 566.47 865.90 556.66 864.99 547.01 864.74 C 457.00 865.07 367.00 864.40 276.99 864.47 C 261.02 864.62 244.80 864.70 229.21 860.76 C 169.97 844.04 123.25 790.15 115.28 729.08 C 112.45 706.50 113.52 683.68 113.29 660.98 C 113.37 602.76 113.08 544.53 113.42 486.30 C 113.47 480.56 113.41 474.81 113.83 469.08 C 117.14 421.34 143.05 375.66 182.41 348.41 Z" />
<path fill="#3d4750" opacity="1.00" d=" M 372.43 648.28 C 381.91 646.96 391.50 647.41 401.03 647.43 C 471.93 647.52 542.83 647.01 613.73 647.27 C 614.50 674.26 614.14 701.26 614.13 728.26 C 533.44 729.40 452.74 729.00 372.04 728.95 C 371.80 702.07 370.09 675.12 372.43 648.28 Z" />
</g>
</svg>
