<?xml version="1.0" encoding="UTF-8" ?>
<!DOCTYPE svg PUBLIC "-//W3C//DTD SVG 1.1//EN" "http://www.w3.org/Graphics/SVG/1.1/DTD/svg11.dtd">
<svg width="1467pt" height="270pt" viewBox="0 0 1467 270" version="1.1" xmlns="http://www.w3.org/2000/svg">
<g id="#262418ff">
</g>
<g id="#3d4750ff">
<path fill="#3d4750" opacity="1.00" d=" M 40.36 54.41 C 48.31 49.36 57.38 45.26 66.98 45.46 C 88.31 45.47 109.64 45.23 130.97 45.44 C 131.49 54.94 131.23 64.46 131.14 73.97 C 111.76 74.33 92.36 73.99 72.97 74.13 C 65.89 74.23 58.45 76.18 53.32 81.32 C 46.98 87.40 44.63 96.49 44.73 105.05 C 44.95 127.05 44.82 149.05 44.84 171.05 C 44.91 177.43 44.30 184.13 46.88 190.14 C 49.04 195.28 53.58 198.88 58.14 201.82 C 61.33 203.93 65.22 204.60 68.99 204.55 C 95.31 204.45 121.63 204.75 147.96 204.64 C 157.83 204.74 167.71 204.41 177.58 204.84 C 177.48 214.35 177.77 223.88 177.26 233.37 C 173.29 234.41 169.09 233.64 165.02 233.80 C 136.35 233.86 107.69 233.71 79.02 233.67 C 71.56 233.56 63.96 234.24 56.65 232.39 C 37.81 227.02 22.56 210.85 18.09 191.81 C 16.25 184.34 16.49 176.59 16.43 168.97 C 16.49 145.97 16.34 122.97 16.50 99.97 C 16.47 82.09 25.73 64.62 40.36 54.41 Z" />
<path fill="#3d4750" opacity="1.00" d=" M 149.87 45.35 C 160.25 45.14 170.63 45.34 181.01 45.20 C 183.03 45.31 185.21 45.08 187.11 45.93 C 188.40 47.03 189.28 48.50 190.19 49.91 C 201.48 69.77 213.22 89.38 224.94 108.99 C 228.33 114.40 231.01 120.25 234.88 125.34 C 240.71 117.14 245.14 108.06 250.46 99.53 C 258.89 84.96 267.62 70.56 275.93 55.92 C 277.79 52.77 279.26 49.38 281.48 46.46 C 282.79 44.87 285.19 45.50 286.99 45.22 C 297.85 45.24 308.70 45.38 319.56 45.43 C 319.88 92.62 319.51 139.81 319.50 187.00 C 319.31 202.56 319.49 218.13 319.16 233.69 C 309.91 233.55 300.66 233.93 291.42 233.73 C 291.69 192.47 291.40 151.20 291.27 109.94 C 291.24 102.48 291.19 95.02 290.89 87.57 C 280.42 105.82 269.64 123.88 258.92 141.98 C 251.27 155.19 243.67 168.43 235.56 181.37 C 233.76 178.78 232.03 176.15 230.44 173.43 C 219.52 155.08 208.36 136.88 197.49 118.51 C 194.64 113.78 191.35 109.35 188.51 104.62 C 185.44 99.78 182.75 94.62 178.69 90.50 C 177.71 106.33 178.50 122.22 177.35 138.03 C 168.14 138.22 158.94 138.40 149.74 138.35 C 149.49 110.90 149.75 83.45 149.61 55.99 C 149.58 52.44 149.69 48.89 149.87 45.35 Z" />
<path fill="#3d4750" opacity="1.00" d=" M 106.49 158.57 C 109.98 158.07 113.51 158.28 117.02 158.26 C 141.46 158.29 165.90 158.12 190.34 158.21 C 190.61 167.59 190.48 176.97 190.48 186.35 C 162.44 186.75 134.39 186.61 106.35 186.59 C 106.27 177.26 105.68 167.86 106.49 158.57 Z" />
<path fill="#3d4750" opacity="1.00" d=" M 652.08 191.80 C 657.18 190.79 662.26 192.98 666.19 196.13 C 665.33 197.26 664.47 198.39 663.62 199.53 C 660.73 197.66 657.61 195.46 653.96 196.06 C 648.27 196.24 643.55 200.85 642.39 206.28 C 640.89 212.95 641.54 221.20 647.07 225.91 C 651.43 229.41 657.48 228.69 662.21 226.37 C 662.16 222.82 662.14 219.26 662.13 215.71 C 659.22 215.62 656.31 215.53 653.41 215.43 C 653.56 214.11 653.72 212.79 653.89 211.48 C 658.15 211.50 662.42 211.51 666.68 211.51 C 666.56 217.14 667.26 222.84 666.36 228.43 C 658.96 235.29 645.17 233.97 639.89 225.09 C 635.73 218.10 635.49 209.08 638.72 201.69 C 641.05 196.32 646.31 192.56 652.08 191.80 Z" />
<path fill="#3d4750" opacity="1.00" d=" M 688.52 201.40 C 691.53 194.56 699.64 190.35 706.96 191.95 C 710.02 192.57 712.48 194.61 715.00 196.33 C 713.95 197.39 712.93 198.47 711.90 199.53 C 708.25 196.26 702.80 194.68 698.37 197.40 C 691.44 201.48 690.54 210.80 692.11 217.95 C 693.04 223.28 697.34 228.23 703.02 228.37 C 706.98 228.93 710.27 226.43 713.17 224.12 C 714.06 225.12 714.92 226.12 715.82 227.12 C 712.56 230.12 708.64 232.94 703.98 232.75 C 697.23 233.27 690.86 228.74 688.31 222.63 C 685.48 215.94 685.59 208.04 688.52 201.40 Z" />
<path fill="#3d4750" opacity="1.00" d=" M 873.41 194.38 C 879.50 189.54 888.36 191.51 893.76 196.44 C 892.80 197.48 891.90 198.54 890.98 199.60 C 887.96 197.69 884.71 195.48 880.93 196.06 C 877.74 196.03 874.24 198.48 874.61 201.97 C 874.54 204.49 876.66 206.20 878.70 207.25 C 883.03 209.66 888.11 210.81 891.92 214.13 C 896.48 218.45 895.79 227.01 890.21 230.20 C 883.13 235.15 873.53 232.43 867.43 227.16 C 868.32 226.05 869.23 224.94 870.14 223.83 C 874.65 226.84 880.17 229.94 885.70 227.65 C 889.74 226.48 891.08 220.76 888.13 217.83 C 883.44 213.75 876.53 213.29 872.15 208.75 C 868.25 204.81 868.69 197.50 873.41 194.38 Z" />
<path fill="#3d4750" opacity="1.00" d=" M 1260.07 191.47 C 1261.66 191.48 1263.27 191.48 1264.90 191.49 C 1264.81 201.03 1264.45 210.56 1264.16 220.09 C 1263.32 220.11 1261.62 220.13 1260.77 220.14 C 1260.45 210.59 1260.03 201.03 1260.07 191.47 Z" />
<path fill="#3d4750" opacity="1.00" d=" M 433.38 192.32 C 443.13 192.22 452.89 192.26 462.65 192.30 C 462.62 193.69 462.61 195.09 462.60 196.48 C 458.60 196.47 454.61 196.48 450.61 196.50 C 450.58 208.35 450.60 220.20 450.61 232.05 C 448.90 232.02 447.19 232.00 445.48 231.98 C 445.54 220.16 445.51 208.35 445.51 196.53 C 441.58 196.48 437.64 196.47 433.71 196.49 C 433.59 195.10 433.48 193.71 433.38 192.32 Z" />
<path fill="#3d4750" opacity="1.00" d=" M 469.78 192.21 C 471.38 192.23 472.99 192.25 474.60 192.28 C 474.64 199.52 474.56 206.75 474.58 213.99 C 474.71 217.52 474.72 221.28 476.51 224.45 C 479.38 229.57 487.69 229.69 491.09 225.06 C 493.21 222.17 493.25 218.41 493.41 214.98 C 493.45 207.41 493.35 199.84 493.40 192.28 C 494.97 192.26 496.55 192.24 498.14 192.22 C 498.25 200.48 498.36 208.74 498.14 216.99 C 497.98 222.32 496.32 228.52 491.21 231.16 C 485.41 233.99 477.21 233.41 473.03 228.04 C 469.91 224.07 469.74 218.76 469.62 213.93 C 469.63 206.69 469.53 199.45 469.78 192.21 Z" />
<path fill="#3d4750" opacity="1.00" d=" M 509.07 192.25 C 515.83 192.43 522.82 191.60 529.38 193.66 C 535.14 195.78 536.52 203.16 534.34 208.34 C 533.07 211.73 529.56 213.32 526.71 215.13 C 529.92 220.85 533.42 226.41 536.38 232.27 C 534.17 231.85 530.98 232.89 529.84 230.32 C 526.82 225.46 524.27 220.33 521.36 215.42 C 518.91 215.38 516.47 215.35 514.03 215.32 C 513.95 220.91 513.96 226.51 513.95 232.11 C 512.31 232.11 510.68 232.11 509.06 232.11 C 509.02 218.83 509.00 205.54 509.07 192.25 M 514.05 196.30 C 513.94 201.25 513.93 206.21 514.01 211.17 C 517.83 211.12 521.75 211.43 525.49 210.46 C 530.56 209.04 531.99 201.31 527.98 198.06 C 523.73 195.77 518.69 196.49 514.05 196.30 Z" />
<path fill="#3d4750" opacity="1.00" d=" M 544.30 192.28 C 546.02 192.29 547.74 192.30 549.48 192.31 C 555.78 203.19 562.00 214.11 568.18 225.06 C 567.81 214.13 567.58 203.19 567.84 192.25 C 569.42 192.26 571.01 192.27 572.61 192.29 C 572.60 205.57 572.58 218.86 572.62 232.15 C 571.03 232.10 569.44 232.12 567.87 231.94 C 564.82 228.85 563.30 224.62 561.02 220.98 C 556.75 213.84 552.85 206.50 548.68 199.31 C 548.95 210.25 549.05 221.19 548.95 232.13 C 547.38 232.11 545.83 232.09 544.28 232.07 C 544.27 218.81 544.24 205.54 544.30 192.28 Z" />
<path fill="#3d4750" opacity="1.00" d=" M 583.45 192.51 C 585.07 192.36 586.69 192.21 588.33 192.07 C 588.65 205.40 588.43 218.74 588.45 232.08 C 586.80 232.10 585.17 232.12 583.54 232.14 C 583.45 218.93 583.60 205.72 583.45 192.51 Z" />
<path fill="#3d4750" opacity="1.00" d=" M 599.64 192.19 C 601.30 192.21 602.98 192.24 604.67 192.27 C 611.02 203.13 617.24 214.06 623.41 225.03 C 623.12 214.10 622.89 203.18 623.07 192.25 C 624.65 192.24 626.25 192.23 627.85 192.22 C 627.83 205.48 627.87 218.74 627.83 232.01 C 626.15 232.08 624.48 232.15 622.82 232.23 C 616.36 221.29 610.07 210.26 603.86 199.17 C 604.34 210.14 604.27 221.11 604.21 232.09 C 602.65 232.10 601.09 232.12 599.55 232.15 C 599.55 218.83 599.37 205.51 599.64 192.19 Z" />
<path fill="#3d4750" opacity="1.00" d=" M 723.30 192.30 C 724.93 192.28 726.55 192.26 728.20 192.24 C 728.25 197.82 728.24 203.39 728.22 208.97 C 734.40 209.07 740.59 209.07 746.78 208.97 C 746.74 203.41 746.74 197.86 746.83 192.30 C 748.49 192.26 750.16 192.22 751.84 192.19 C 751.84 205.47 751.86 218.75 751.83 232.03 C 750.14 232.07 748.45 232.11 746.78 232.15 C 746.74 225.89 746.78 219.63 746.74 213.37 C 740.59 213.36 734.43 213.35 728.28 213.40 C 728.20 219.64 728.25 225.87 728.22 232.11 C 726.56 232.10 724.92 232.10 723.28 232.09 C 723.27 218.83 723.23 205.56 723.30 192.30 Z" />
<path fill="#3d4750" opacity="1.00" d=" M 772.38 192.39 C 778.19 190.60 785.19 191.97 789.31 196.64 C 792.94 200.52 794.26 205.98 794.49 211.17 C 794.65 217.14 793.28 223.54 788.99 227.95 C 783.86 233.80 774.16 234.34 768.02 229.82 C 762.35 225.62 760.46 218.14 760.54 211.40 C 760.40 203.59 764.33 194.70 772.38 192.39 M 775.21 196.28 C 770.42 197.22 767.26 201.70 766.38 206.27 C 764.89 212.99 765.61 221.10 770.94 226.01 C 775.47 230.14 783.42 228.70 786.37 223.38 C 790.06 217.00 790.32 208.55 787.05 201.95 C 785.00 197.58 779.90 195.15 775.21 196.28 Z" />
<path fill="#3d4750" opacity="1.00" d=" M 803.19 192.29 C 809.89 192.38 816.81 191.62 823.33 193.62 C 830.88 196.14 831.52 207.95 825.29 212.23 C 823.87 213.28 822.35 214.17 820.87 215.11 C 824.05 220.78 827.40 226.35 830.53 232.05 C 828.68 232.07 826.84 232.09 825.01 232.11 C 821.76 226.57 818.61 220.97 815.46 215.37 C 813.03 215.36 810.60 215.35 808.18 215.35 C 808.10 220.94 808.11 226.52 808.10 232.11 C 806.45 232.10 804.80 232.10 803.17 232.09 C 803.16 218.82 803.12 205.55 803.19 192.29 M 808.17 196.33 C 808.10 201.28 808.09 206.22 808.14 211.17 C 812.10 211.07 816.24 211.55 820.07 210.24 C 824.68 208.59 825.89 201.83 822.57 198.48 C 818.36 195.62 812.96 196.50 808.17 196.33 Z" />
<path fill="#3d4750" opacity="1.00" d=" M 838.39 192.29 C 845.99 192.25 853.60 192.28 861.21 192.26 C 861.27 193.65 861.35 195.05 861.44 196.45 C 855.42 196.50 849.39 196.48 843.37 196.47 C 843.35 200.63 843.35 204.80 843.35 208.97 C 848.43 209.04 853.51 209.05 858.60 209.03 C 858.58 210.47 858.57 211.91 858.58 213.36 C 853.51 213.36 848.45 213.37 843.39 213.38 C 843.34 218.20 843.34 223.01 843.38 227.83 C 849.57 227.90 855.76 227.86 861.96 227.89 C 861.95 229.29 861.96 230.69 861.97 232.09 C 854.11 232.12 846.24 232.21 838.38 232.01 C 838.41 218.77 838.40 205.53 838.39 192.29 Z" />
<path fill="#3d4750" opacity="1.00" d=" M 915.18 192.27 C 916.80 192.27 918.41 192.26 920.05 192.25 C 920.18 205.54 920.12 218.82 920.09 232.11 C 918.43 232.11 916.80 232.11 915.17 232.11 C 915.15 218.83 915.12 205.55 915.18 192.27 Z" />
<path fill="#3d4750" opacity="1.00" d=" M 931.08 191.97 C 932.79 192.17 934.54 192.26 936.23 192.71 C 938.70 195.70 940.19 199.35 942.21 202.65 C 946.62 210.15 950.84 217.77 955.03 225.40 C 954.60 214.36 954.52 203.31 954.72 192.26 C 956.23 192.25 957.74 192.25 959.27 192.25 C 959.46 205.54 959.35 218.84 959.34 232.14 C 957.60 232.10 955.90 232.06 954.19 232.02 C 947.87 220.90 941.19 209.98 935.27 198.64 C 936.01 209.75 935.86 220.90 935.83 232.03 C 934.23 232.07 932.63 232.10 931.05 232.14 C 931.04 218.75 930.98 205.36 931.08 191.97 Z" />
<path fill="#3d4750" opacity="1.00" d=" M 966.43 192.32 C 976.21 192.21 986.00 192.29 995.78 192.27 C 995.73 193.67 995.70 195.07 995.68 196.48 C 991.70 196.47 987.72 196.48 983.75 196.51 C 983.69 208.35 983.76 220.19 983.72 232.03 C 982.03 232.07 980.33 232.11 978.67 232.16 C 978.49 220.25 978.89 208.34 978.46 196.43 C 974.49 196.47 970.54 196.48 966.58 196.45 C 966.52 195.07 966.47 193.70 966.43 192.32 Z" />
<path fill="#3d4750" opacity="1.00" d=" M 1010.41 192.59 C 1015.39 190.89 1021.24 191.39 1025.57 194.53 C 1030.26 197.76 1032.62 203.45 1033.00 208.99 C 1033.55 215.79 1032.32 223.38 1027.30 228.37 C 1021.20 234.45 1010.00 234.23 1004.35 227.65 C 999.42 221.98 998.51 213.89 999.63 206.72 C 1000.64 200.67 1004.27 194.51 1010.41 192.59 M 1013.24 196.41 C 1006.61 198.14 1004.29 205.81 1004.33 211.90 C 1004.42 217.08 1005.58 222.96 1009.91 226.30 C 1013.96 229.60 1020.57 228.94 1023.88 224.90 C 1027.37 220.81 1028.11 215.12 1027.81 209.93 C 1027.53 205.62 1026.09 201.06 1022.65 198.24 C 1020.05 196.09 1016.43 195.58 1013.24 196.41 Z" />
<path fill="#3d4750" opacity="1.00" d=" M 1053.54 202.56 C 1055.85 196.21 1062.12 191.56 1068.96 191.62 C 1073.28 191.23 1076.98 193.76 1080.35 196.12 C 1079.42 197.21 1078.51 198.31 1077.61 199.40 C 1075.21 198.05 1072.89 196.12 1070.02 196.03 C 1065.85 195.84 1061.55 197.91 1059.53 201.63 C 1056.32 207.35 1056.14 214.56 1058.42 220.64 C 1060.00 225.01 1064.19 228.48 1068.97 228.42 C 1072.79 228.66 1075.89 226.16 1078.85 224.12 C 1079.65 225.16 1080.45 226.20 1081.28 227.24 C 1079.04 229.07 1076.84 231.13 1074.03 232.01 C 1067.53 234.06 1059.67 231.83 1055.77 226.09 C 1051.08 219.32 1050.71 210.14 1053.54 202.56 Z" />
<path fill="#3d4750" opacity="1.00" d=" M 1088.83 192.28 C 1090.45 192.26 1092.09 192.25 1093.73 192.24 C 1093.72 197.82 1093.72 203.41 1093.75 209.00 C 1099.91 209.06 1106.08 209.06 1112.25 209.01 C 1112.27 203.44 1112.26 197.87 1112.30 192.30 C 1113.95 192.28 1115.60 192.25 1117.28 192.24 C 1117.44 205.53 1117.36 218.83 1117.33 232.13 C 1115.62 232.10 1113.95 232.07 1112.27 232.05 C 1112.26 225.82 1112.31 219.59 1112.20 213.36 C 1106.07 213.36 1099.94 213.36 1093.81 213.37 C 1093.68 219.58 1093.73 225.80 1093.73 232.02 C 1092.08 232.06 1090.42 232.11 1088.79 232.16 C 1088.77 218.86 1088.70 205.57 1088.83 192.28 Z" />
<path fill="#3d4750" opacity="1.00" d=" M 1128.30 192.30 C 1135.91 192.24 1143.53 192.28 1151.15 192.26 C 1151.18 193.65 1151.22 195.04 1151.28 196.44 C 1145.31 196.50 1139.34 196.48 1133.37 196.46 C 1133.35 200.63 1133.34 204.80 1133.35 208.96 C 1138.34 209.03 1143.35 209.05 1148.35 209.04 C 1148.34 210.47 1148.34 211.90 1148.35 213.33 C 1143.35 213.36 1138.37 213.37 1133.38 213.38 C 1133.34 218.20 1133.34 223.02 1133.37 227.84 C 1139.52 227.90 1145.68 227.86 1151.84 227.92 C 1151.83 229.29 1151.84 230.66 1151.87 232.04 C 1144.00 232.17 1136.13 232.16 1128.27 232.04 C 1128.28 218.80 1128.23 205.55 1128.30 192.30 Z" />
<path fill="#3d4750" opacity="1.00" d=" M 1160.30 192.30 C 1167.89 192.23 1175.48 192.30 1183.08 192.23 C 1183.14 193.63 1183.21 195.04 1183.30 196.44 C 1177.32 196.50 1171.35 196.48 1165.37 196.46 C 1165.34 200.63 1165.34 204.80 1165.35 208.97 C 1170.38 209.04 1175.41 209.05 1180.45 209.02 C 1180.44 210.45 1180.44 211.89 1180.46 213.33 C 1175.43 213.36 1170.41 213.37 1165.38 213.38 C 1165.34 218.20 1165.33 223.02 1165.37 227.83 C 1171.52 227.90 1177.67 227.87 1183.83 227.90 C 1183.83 229.28 1183.84 230.65 1183.88 232.03 C 1176.01 232.18 1168.14 232.15 1160.28 232.06 C 1160.28 218.81 1160.23 205.55 1160.30 192.30 Z" />
<path fill="#3d4750" opacity="1.00" d=" M 1192.30 192.30 C 1198.81 192.38 1205.49 191.70 1211.87 193.36 C 1220.11 195.64 1221.00 208.75 1213.78 212.76 C 1212.55 213.53 1211.27 214.21 1210.03 214.91 C 1213.00 220.75 1216.45 226.32 1219.84 231.92 C 1217.94 231.98 1216.06 232.04 1214.19 232.10 C 1210.96 226.54 1207.84 220.92 1204.61 215.36 C 1202.16 215.36 1199.72 215.37 1197.29 215.37 C 1197.22 220.95 1197.23 226.54 1197.21 232.12 C 1195.54 232.10 1193.91 232.09 1192.28 232.07 C 1192.27 218.82 1192.23 205.56 1192.30 192.30 M 1197.29 196.35 C 1197.21 201.27 1197.20 206.20 1197.24 211.12 C 1201.39 211.06 1205.83 211.69 1209.75 209.96 C 1214.79 207.90 1215.02 199.18 1209.74 197.31 C 1205.73 195.97 1201.43 196.42 1197.29 196.35 Z" />
<path fill="#3d4750" opacity="1.00" d=" M 1227.22 197.22 C 1230.02 192.70 1235.90 190.97 1240.96 191.82 C 1244.43 192.25 1247.31 194.38 1250.16 196.25 C 1249.22 197.31 1248.27 198.37 1247.35 199.43 C 1243.51 196.90 1238.60 194.70 1234.12 196.96 C 1230.73 198.19 1229.74 203.12 1232.44 205.53 C 1237.27 209.78 1244.71 209.89 1248.95 214.97 C 1253.07 219.74 1251.19 227.82 1245.76 230.78 C 1238.68 234.87 1229.58 232.41 1223.80 227.16 C 1224.74 226.01 1225.70 224.86 1226.67 223.71 C 1230.93 226.93 1236.33 229.77 1241.77 227.79 C 1245.72 226.77 1247.49 221.23 1244.83 218.19 C 1240.17 214.09 1233.52 213.26 1228.88 209.12 C 1225.57 206.23 1224.84 200.90 1227.22 197.22 Z" />
<path fill="#3d4750" opacity="1.00" d=" M 380.60 209.61 C 393.20 209.64 405.80 209.60 418.40 209.63 C 418.29 211.31 418.21 213.00 418.11 214.69 C 405.56 214.56 393.01 214.76 380.46 214.58 C 380.50 212.92 380.55 211.26 380.60 209.61 Z" />
<path fill="#3d4750" opacity="1.00" d=" M 1281.21 209.68 C 1293.79 209.58 1306.38 209.63 1318.97 209.65 C 1318.93 211.32 1318.92 212.99 1318.91 214.67 C 1306.35 214.66 1293.78 214.61 1281.22 214.70 C 1281.21 213.02 1281.19 211.35 1281.21 209.68 Z" />
<path fill="#3d4750" opacity="1.00" d=" M 1260.77 225.76 C 1262.67 224.62 1264.61 226.28 1266.39 226.88 C 1265.70 228.99 1265.85 232.54 1262.88 232.74 C 1259.09 233.37 1257.32 227.27 1260.77 225.76 Z" />
</g>
<g id="#89562dff">
<path fill="#89562d" opacity="1.00" d=" M 359.81 61.94 C 364.84 51.96 376.10 46.26 387.04 46.32 C 396.69 45.96 407.03 49.05 413.29 56.77 C 418.96 63.54 420.08 72.72 420.20 81.24 C 414.69 81.26 409.19 81.26 403.69 81.24 C 403.56 74.98 402.64 67.78 397.17 63.81 C 390.31 59.59 379.51 60.58 375.14 67.95 C 370.59 75.47 372.12 84.63 371.85 92.98 C 372.10 100.47 370.81 108.59 374.54 115.46 C 378.91 123.53 390.68 124.68 397.83 119.86 C 403.35 116.04 403.25 108.71 403.75 102.73 C 409.23 102.76 414.72 102.76 420.20 102.77 C 420.02 110.87 419.11 119.47 414.27 126.25 C 409.05 133.65 399.92 137.38 391.06 137.59 C 380.58 138.44 369.03 135.18 362.50 126.47 C 355.91 118.22 355.11 107.19 355.24 97.04 C 355.46 85.30 354.04 72.70 359.81 61.94 Z" />
<path fill="#89562d" opacity="1.00" d=" M 436.22 48.02 C 441.47 47.99 446.73 47.99 452.00 48.01 C 452.05 60.00 451.89 72.00 452.08 83.99 C 452.63 83.88 453.71 83.64 454.25 83.52 C 456.70 79.06 460.17 74.85 465.07 73.02 C 469.56 71.39 474.56 71.57 479.15 72.68 C 485.22 74.13 489.96 79.06 492.22 84.74 C 494.19 89.56 494.22 94.85 494.27 99.97 C 494.23 111.97 494.27 123.98 494.24 135.99 C 488.96 136.01 483.68 136.01 478.41 135.98 C 478.44 125.32 478.38 114.66 478.45 104.00 C 478.39 99.41 478.55 94.28 475.54 90.49 C 470.54 84.44 459.78 84.92 455.30 91.35 C 452.38 95.25 452.00 100.31 451.98 105.01 C 451.99 115.34 452.01 125.66 452.00 135.99 C 446.74 136.00 441.48 136.00 436.22 135.99 C 436.22 106.66 436.23 77.34 436.22 48.02 Z" />
<path fill="#89562d" opacity="1.00" d=" M 813.56 47.93 C 814.47 47.88 815.40 47.84 816.33 47.81 C 820.70 47.63 825.07 47.68 829.45 47.66 C 833.88 47.99 838.36 47.62 842.76 48.22 C 843.18 52.64 843.14 57.10 843.79 61.51 C 844.14 64.64 844.38 67.78 844.51 70.92 C 844.68 76.45 845.11 81.96 845.76 87.44 C 846.07 90.37 846.29 93.30 846.42 96.24 C 846.96 106.49 847.97 116.72 847.64 127.00 C 848.39 127.00 849.90 127.00 850.65 127.00 C 850.28 116.00 851.35 105.05 852.10 94.10 C 852.28 90.67 852.49 87.25 852.81 83.83 C 853.44 77.40 854.02 70.96 854.29 64.50 C 854.46 60.90 854.66 57.31 855.03 53.73 C 855.22 51.84 855.46 49.95 855.70 48.06 C 859.07 48.02 862.46 47.96 865.84 47.84 C 869.87 47.68 873.91 47.66 877.95 47.81 C 880.22 47.90 882.50 47.98 884.79 48.07 C 884.90 49.57 885.02 51.08 885.13 52.60 C 885.31 55.74 885.26 58.88 885.09 62.02 C 884.43 86.66 885.00 111.34 884.80 135.99 C 879.78 136.00 874.76 136.00 869.74 135.99 C 869.63 116.51 869.93 97.03 869.57 77.55 C 869.73 74.37 869.93 71.19 870.27 68.02 C 870.65 64.35 870.98 60.67 871.28 56.99 C 870.51 57.00 868.97 57.01 868.20 57.02 C 868.04 59.50 867.89 61.98 867.77 64.46 C 867.50 70.47 867.07 76.47 866.32 82.43 C 864.44 100.25 863.27 118.13 861.69 135.98 C 853.41 136.02 845.12 136.00 836.84 135.99 C 835.56 122.67 834.76 109.31 833.23 96.02 C 832.81 92.46 832.54 88.88 832.36 85.31 C 831.81 75.86 830.84 66.45 830.04 57.02 C 829.29 57.01 827.78 57.00 827.02 57.00 C 827.64 65.90 828.41 74.79 828.89 83.70 C 828.94 87.19 828.78 90.67 828.62 94.14 C 828.41 108.09 828.61 122.04 828.53 135.99 C 823.50 136.00 818.48 136.00 813.47 135.99 C 813.38 130.37 813.65 124.74 813.34 119.12 C 812.31 109.82 812.46 100.45 813.22 91.13 C 813.54 86.37 813.53 81.59 813.26 76.82 C 812.94 69.02 812.26 61.20 812.87 53.38 C 813.03 51.56 813.31 49.75 813.56 47.93 Z" />
<path fill="#89562d" opacity="1.00" d=" M 534.36 72.53 C 544.42 70.43 555.47 72.97 563.35 79.62 C 574.73 89.54 576.58 107.29 570.54 120.57 C 563.79 134.81 545.54 140.71 531.04 135.95 C 521.28 133.17 513.02 125.27 510.46 115.36 C 507.85 105.01 508.80 93.15 515.30 84.37 C 519.79 78.08 526.93 74.21 534.36 72.53 M 537.36 87.43 C 530.82 88.47 525.75 94.41 525.13 100.90 C 524.28 107.35 525.30 114.96 530.91 119.07 C 538.97 125.56 553.08 122.78 556.81 112.75 C 559.08 105.80 558.79 97.05 553.45 91.53 C 549.37 87.27 542.92 86.42 537.36 87.43 Z" />
<path fill="#89562d" opacity="1.00" d=" M 622.24 74.32 C 630.38 69.57 642.13 71.54 647.69 79.36 C 651.74 84.75 652.00 91.77 652.17 98.23 C 646.78 98.75 641.40 99.24 636.01 99.71 C 635.29 95.82 635.21 90.99 631.60 88.50 C 627.59 85.99 621.92 86.23 618.15 89.12 C 614.92 91.74 614.02 96.11 613.94 100.07 C 613.75 106.96 613.93 113.86 613.90 120.75 C 618.66 120.75 623.42 120.76 628.19 120.77 C 628.21 125.84 628.21 130.92 628.19 135.99 C 613.87 136.00 599.55 136.01 585.24 135.98 C 585.24 130.91 585.24 125.84 585.25 120.77 C 589.50 120.76 593.76 120.75 598.01 120.76 C 598.06 110.09 598.04 99.43 598.03 88.76 C 594.28 88.75 590.54 88.75 586.80 88.75 C 586.75 83.67 586.75 78.59 586.78 73.51 C 595.55 73.49 604.32 73.49 613.10 73.51 C 613.12 76.65 613.14 79.78 613.19 82.92 C 613.72 82.84 614.78 82.69 615.31 82.62 C 617.10 79.48 618.97 76.14 622.24 74.32 Z" />
<path fill="#89562d" opacity="1.00" d=" M 675.84 78.77 C 682.08 73.95 690.02 71.19 697.94 71.88 C 706.72 71.99 715.02 76.79 720.41 83.56 C 726.13 91.09 726.78 100.89 726.37 109.99 C 711.02 110.05 695.67 109.92 680.32 110.06 C 681.19 113.06 682.09 116.29 684.59 118.40 C 689.51 123.13 697.22 123.76 703.35 121.23 C 705.88 119.99 707.62 117.67 709.53 115.67 C 711.45 116.71 713.39 117.74 715.32 118.77 C 718.03 120.23 720.72 121.73 723.41 123.24 C 721.77 125.49 720.14 127.75 718.21 129.76 C 711.85 135.91 702.65 137.90 694.06 137.65 C 685.42 137.35 676.58 133.70 671.28 126.67 C 665.42 119.22 663.68 109.31 664.57 100.05 C 665.27 91.84 669.33 83.88 675.84 78.77 M 690.09 87.07 C 685.60 88.33 682.68 92.24 680.61 96.17 C 690.60 96.30 700.60 96.30 710.60 96.17 C 709.22 93.42 707.94 90.33 705.14 88.73 C 700.68 86.09 695.03 85.71 690.09 87.07 Z" />
<path fill="#89562d" opacity="1.00" d=" M 902.50 78.40 C 909.30 71.92 919.95 70.07 928.66 73.40 C 933.03 74.92 934.80 79.71 938.70 81.91 C 938.82 79.11 938.91 76.30 938.93 73.50 C 944.18 73.49 949.42 73.49 954.68 73.50 C 954.71 87.33 954.69 101.16 954.67 114.99 C 954.90 116.66 954.34 118.96 956.02 120.03 C 957.42 120.61 958.93 120.84 960.42 121.24 C 960.48 126.15 960.46 131.07 960.44 135.98 C 955.54 135.87 950.50 136.54 945.70 135.30 C 941.75 134.08 940.40 129.90 939.42 126.34 C 936.11 128.76 934.82 133.20 931.03 135.02 C 920.73 140.26 907.00 137.15 899.88 128.07 C 893.73 120.60 892.08 110.49 892.75 101.08 C 893.17 92.69 896.52 84.37 902.50 78.40 M 920.29 87.35 C 914.50 88.33 909.90 93.22 908.98 98.96 C 907.96 105.02 908.02 111.98 911.92 117.08 C 917.26 124.41 929.76 124.48 935.23 117.26 C 938.45 113.27 939.06 107.87 938.79 102.91 C 938.62 98.55 937.30 93.99 934.06 90.91 C 930.44 87.52 925.08 86.39 920.29 87.35 Z" />
<path fill="#89562d" opacity="1.00" d=" M 998.92 74.99 C 1007.76 69.53 1021.00 70.91 1027.37 79.54 C 1031.36 84.78 1032.40 91.57 1032.37 97.99 C 1032.36 110.66 1032.36 123.32 1032.35 135.99 C 1027.08 136.00 1021.81 136.00 1016.55 135.99 C 1016.52 125.00 1016.52 114.00 1016.56 103.01 C 1016.52 98.72 1016.41 93.97 1013.62 90.45 C 1009.21 85.17 1000.34 84.90 995.26 89.32 C 991.12 92.93 990.16 98.74 990.16 103.96 C 990.13 114.63 990.19 125.31 990.15 135.99 C 984.87 136.01 979.59 136.01 974.33 135.98 C 974.34 115.15 974.31 94.33 974.35 73.50 C 979.58 73.50 984.81 73.50 990.05 73.46 C 990.10 76.89 990.14 80.31 990.36 83.73 C 993.91 81.51 995.23 77.05 998.92 74.99 Z" />
<path fill="#89562d" opacity="1.00" d=" M 1056.36 78.39 C 1063.20 71.89 1073.93 70.04 1082.66 73.42 C 1086.92 75.04 1088.56 79.88 1092.60 81.81 C 1092.68 79.06 1092.69 76.30 1092.69 73.54 C 1097.96 73.48 1103.23 73.48 1108.51 73.50 C 1108.61 88.01 1108.36 102.53 1108.60 117.04 C 1108.10 120.41 1111.92 120.68 1114.25 121.22 C 1114.31 126.14 1114.29 131.06 1114.27 135.98 C 1109.39 135.89 1104.41 136.51 1099.63 135.34 C 1095.62 134.14 1094.19 129.94 1093.22 126.33 C 1089.88 128.97 1088.43 133.57 1084.35 135.28 C 1074.13 140.13 1060.84 137.05 1053.80 128.19 C 1047.12 120.16 1045.72 109.09 1046.76 99.01 C 1047.48 91.31 1050.85 83.85 1056.36 78.39 M 1073.41 87.51 C 1067.73 88.75 1063.51 93.81 1062.70 99.47 C 1061.85 105.43 1061.93 112.22 1065.83 117.19 C 1071.25 124.45 1083.77 124.45 1089.15 117.13 C 1092.32 113.15 1092.85 107.80 1092.63 102.89 C 1092.45 98.59 1091.17 94.10 1088.02 91.03 C 1084.21 87.38 1078.44 86.25 1073.41 87.51 Z" />
<path fill="#89562d" opacity="1.00" d=" M 1139.60 74.60 C 1145.58 71.55 1152.68 71.10 1159.14 72.73 C 1164.26 74.07 1167.61 78.52 1170.44 82.68 C 1170.98 82.72 1172.07 82.80 1172.61 82.83 C 1172.63 79.72 1172.64 76.62 1172.66 73.51 C 1177.91 73.49 1183.16 73.49 1188.41 73.51 C 1188.38 99.32 1188.53 125.14 1188.34 150.95 C 1188.64 156.22 1184.36 160.91 1179.04 160.84 C 1164.98 161.25 1150.89 160.88 1136.83 160.99 C 1136.80 156.00 1136.80 151.00 1136.82 146.01 C 1146.89 145.96 1156.95 146.02 1167.02 146.03 C 1168.90 145.92 1171.98 146.16 1172.37 143.65 C 1173.05 138.11 1172.49 132.51 1172.63 126.95 C 1172.10 126.99 1171.05 127.06 1170.52 127.10 C 1168.46 130.11 1166.38 133.39 1162.99 135.06 C 1156.96 138.09 1149.80 138.34 1143.34 136.72 C 1135.17 134.59 1128.66 127.90 1125.96 120.01 C 1123.38 112.64 1123.15 104.60 1124.17 96.92 C 1125.50 87.68 1130.91 78.60 1139.60 74.60 M 1152.28 87.38 C 1146.67 88.32 1141.70 92.48 1140.27 98.05 C 1138.99 103.44 1138.94 109.49 1141.52 114.51 C 1146.19 123.38 1159.49 125.35 1166.94 118.92 C 1173.07 113.51 1173.88 104.08 1171.22 96.75 C 1168.41 89.39 1159.74 85.66 1152.28 87.38 Z" />
<path fill="#89562d" opacity="1.00" d=" M 1207.83 85.80 C 1216.80 71.57 1238.17 67.18 1251.84 77.13 C 1259.09 81.63 1263.39 89.79 1264.43 98.10 C 1264.86 102.05 1264.74 106.03 1264.74 109.99 C 1249.37 110.06 1234.01 109.90 1218.64 110.07 C 1219.57 113.21 1220.60 116.58 1223.31 118.69 C 1228.15 123.09 1235.47 123.67 1241.41 121.37 C 1244.10 120.19 1245.92 117.75 1247.89 115.66 C 1252.39 118.19 1256.87 120.76 1261.34 123.35 C 1258.09 128.70 1253.41 133.39 1247.39 135.45 C 1237.71 138.73 1226.49 138.65 1217.47 133.50 C 1209.88 129.19 1205.00 121.11 1203.45 112.66 C 1201.85 103.59 1202.57 93.63 1207.83 85.80 M 1226.71 87.76 C 1223.05 89.34 1220.84 92.83 1218.96 96.16 C 1228.95 96.31 1238.94 96.30 1248.93 96.16 C 1247.49 93.11 1245.91 89.74 1242.66 88.25 C 1237.76 85.89 1231.72 85.57 1226.71 87.76 Z" />
<path fill="#89562d" opacity="1.00" d=" M 1314.31 74.40 C 1322.20 69.72 1333.57 71.35 1339.34 78.66 C 1343.87 84.09 1344.18 91.49 1344.38 98.22 C 1338.99 98.75 1333.61 99.25 1328.23 99.73 C 1327.49 95.76 1327.36 90.79 1323.57 88.36 C 1319.12 85.79 1312.71 86.30 1309.21 90.23 C 1306.65 93.18 1306.15 97.23 1306.09 100.99 C 1305.98 107.57 1306.11 114.16 1306.09 120.75 C 1310.85 120.74 1315.61 120.74 1320.39 120.76 C 1320.40 125.84 1320.40 130.92 1320.39 136.00 C 1306.07 136.00 1291.75 136.04 1277.43 135.98 C 1277.38 130.88 1277.39 125.79 1277.53 120.70 C 1281.75 120.74 1285.98 120.76 1290.21 120.75 C 1290.25 110.09 1290.23 99.43 1290.22 88.77 C 1286.46 88.76 1282.72 88.76 1278.98 88.75 C 1278.94 83.67 1278.93 78.59 1278.97 73.51 C 1287.74 73.49 1296.52 73.49 1305.30 73.51 C 1305.31 76.62 1305.33 79.74 1305.36 82.86 C 1305.89 82.81 1306.95 82.71 1307.49 82.66 C 1309.27 79.56 1311.09 76.23 1314.31 74.40 Z" />
</g>
</svg>
